<svg width="32" height="32" viewBox="0 0 32 32" fill="none" xmlns="http://www.w3.org/2000/svg">
<path d="M31.4857 0.293579C31.2286 1.11554e-06 30.7143 0 30.3286 0L23 2.49541V32L31.1 29.3578C31.6143 29.211 32 28.6239 32 27.8899V1.46789C32 1.02752 31.8714 0.587157 31.4857 0.293579Z" fill="#095CFC"/>
<path d="M20 2.22222L12 0V29.7778L20 32V2.22222Z" fill="#B5CEFD"/>
<path d="M9 0L0.900001 2.6422C0.385715 2.93578 0 3.52293 0 4.11009V30.5321C0 30.9725 0.128571 31.4128 0.514285 31.7064C0.771428 31.8532 1.02857 32 1.28571 32H1.67143L9 29.5046V0Z" fill="#095CFC"/>
</svg>
