<svg width="32" height="32" viewBox="0 0 32 32" fill="none" xmlns="http://www.w3.org/2000/svg">
<path d="M11.5556 13H1.44444C1.06135 13 0.693953 12.8478 0.423067 12.5769C0.152181 12.306 0 11.9386 0 11.5556V1.44444C0 1.06135 0.152181 0.693953 0.423067 0.423067C0.693953 0.152181 1.06135 0 1.44444 0H11.5556C11.9386 0 12.306 0.152181 12.5769 0.423067C12.8478 0.693953 13 1.06135 13 1.44444V11.5556C13 11.9386 12.8478 12.306 12.5769 12.5769C12.306 12.8478 11.9386 13 11.5556 13Z" fill="#095CFC"/>
<path d="M11.5556 32H1.44444C1.06135 32 0.693953 31.8478 0.423067 31.5769C0.152181 31.306 0 30.9386 0 30.5556V20.4444C0 20.0614 0.152181 19.694 0.423067 19.4231C0.693953 19.1522 1.06135 19 1.44444 19H11.5556C11.9386 19 12.306 19.1522 12.5769 19.4231C12.8478 19.694 13 20.0614 13 20.4444V30.5556C13 30.9386 12.8478 31.306 12.5769 31.5769C12.306 31.8478 11.9386 32 11.5556 32Z" fill="#095CFC"/>
<path d="M17 1H32V4H17V1Z" fill="#095CFC"/>
<path d="M32 20H17V23H32V20Z" fill="#095CFC"/>
<path d="M32 28H17V31H32V28Z" fill="#B5CEFD"/>
<path d="M32 9H17V12H32V9Z" fill="#B5CEFD"/>
</svg>
