<svg width="32" height="32" viewBox="0 0 32 32" fill="none" xmlns="http://www.w3.org/2000/svg">
<path d="M6 0H1.5C1.10218 0 0.720643 0.153245 0.439339 0.426025C0.158034 0.698806 0 1.06878 0 1.45455V30.5455C0 30.9312 0.158034 31.3012 0.439339 31.574C0.720643 31.8468 1.10218 32 1.5 32H6V0Z" fill="#095CFC"/>
<path d="M9 32H23V0H9V32ZM16 26.1818C15.6287 26.1818 15.2726 26.0286 15.01 25.7558C14.7475 25.483 14.6 25.113 14.6 24.7273C14.6 24.3415 14.7475 23.9715 15.01 23.6988C15.2726 23.426 15.6287 23.2727 16 23.2727C16.3713 23.2727 16.7274 23.426 16.99 23.6988C17.2525 23.9715 17.4 24.3415 17.4 24.7273C17.4 25.113 17.2525 25.483 16.99 25.7558C16.7274 26.0286 16.3713 26.1818 16 26.1818ZM16 5.81818C16.3713 5.81818 16.7274 5.97143 16.99 6.24421C17.2525 6.51699 17.4 6.88696 17.4 7.27273C17.4 7.6585 17.2525 8.02847 16.99 8.30125C16.7274 8.57403 16.3713 8.72727 16 8.72727C15.6287 8.72727 15.2726 8.57403 15.01 8.30125C14.7475 8.02847 14.6 7.6585 14.6 7.27273C14.6 6.88696 14.7475 6.51699 15.01 6.24421C15.2726 5.97143 15.6287 5.81818 16 5.81818ZM16 14.5455C16.3713 14.5455 16.7274 14.6987 16.99 14.9715C17.2525 15.2443 17.4 15.6142 17.4 16C17.4 16.3858 17.2525 16.7557 16.99 17.0285C16.7274 17.3013 16.3713 17.4545 16 17.4545C15.6287 17.4545 15.2726 17.3013 15.01 17.0285C14.7475 16.7557 14.6 16.3858 14.6 16C14.6 15.6142 14.7475 15.2443 15.01 14.9715C15.2726 14.6987 15.6287 14.5455 16 14.5455Z" fill="#095CFC"/>
<path d="M30.5 0H26V32H30.5C30.8978 32 31.2794 31.8468 31.5607 31.574C31.842 31.3012 32 30.9312 32 30.5455V1.45455C32 1.06878 31.842 0.698806 31.5607 0.426025C31.2794 0.153245 30.8978 0 30.5 0Z" fill="#B5CEFD"/>
</svg>
