<svg width="32" height="32" viewBox="0 0 32 32" fill="none" xmlns="http://www.w3.org/2000/svg">
<path d="M30.3636 32H15.6364C15.2024 32 14.7862 31.8683 14.4793 31.6339C14.1724 31.3995 14 31.0815 14 30.75V28.25C14 27.9185 14.1724 27.6005 14.4793 27.3661C14.7862 27.1317 15.2024 27 15.6364 27H30.3636C30.7976 27 31.2138 27.1317 31.5207 27.3661C31.8276 27.6005 32 27.9185 32 28.25V30.75C32 31.0815 31.8276 31.3995 31.5207 31.6339C31.2138 31.8683 30.7976 32 30.3636 32Z" fill="#095CFC"/>
<path d="M30.4 0H1.6C1.17565 0 0.768686 0.131695 0.468628 0.366116C0.16857 0.600536 0 0.918479 0 1.25V3.75C0 4.08152 0.16857 4.39946 0.468628 4.63388C0.768686 4.8683 1.17565 5 1.6 5H30.4C30.8243 5 31.2313 4.8683 31.5314 4.63388C31.8314 4.39946 32 4.08152 32 3.75V1.25C32 0.918479 31.8314 0.600536 31.5314 0.366116C31.2313 0.131695 30.8243 0 30.4 0Z" fill="#095CFC"/>
<path d="M30.4 8H1.6C1.17565 8 0.768686 8.14047 0.468628 8.39052C0.16857 8.64057 0 8.97971 0 9.33333V22.6667C0 23.0203 0.16857 23.3594 0.468628 23.6095C0.768686 23.8595 1.17565 24 1.6 24H30.4C30.8243 24 31.2313 23.8595 31.5314 23.6095C31.8314 23.3594 32 23.0203 32 22.6667V9.33333C32 8.97971 31.8314 8.64057 31.5314 8.39052C31.2313 8.14047 30.8243 8 30.4 8Z" fill="#B5CEFD"/>
</svg>
