<svg width="32" height="32" viewBox="0 0 32 32" fill="none" xmlns="http://www.w3.org/2000/svg">
<path d="M31.9999 7.27272V1.45454C31.9999 1.06877 31.8467 0.698805 31.5739 0.426025C31.3011 0.153245 30.9311 0 30.5454 0H1.45454C1.06877 0 0.698804 0.153245 0.426024 0.426025C0.153245 0.698805 0 1.06877 0 1.45454V7.27272H31.9999Z" fill="#095CFC"/>
<path d="M0 10.1818V30.5454C0 30.9312 0.153245 31.3012 0.426024 31.574C0.698804 31.8467 1.06877 32 1.45454 32H8.72725V10.1818H0Z" fill="#B5CEFD"/>
<path d="M11.6364 32H30.5455C30.9312 32 31.3012 31.8467 31.574 31.574C31.8467 31.3012 32 30.9312 32 30.5454V10.1818H11.6364V32Z" fill="#095CFC"/>
</svg>
